<?xml version="1.0" standalone="no"?>
<!DOCTYPE svg PUBLIC "-//W3C//DTD SVG 20010904//EN"
 "http://www.w3.org/TR/2001/REC-SVG-20010904/DTD/svg10.dtd">
<svg version="1.0" xmlns="http://www.w3.org/2000/svg"
 width="128.000000pt" height="128.000000pt" viewBox="0 0 128.000000 128.000000"
 preserveAspectRatio="xMidYMid meet">
<metadata>
Created by potrace 1.11, written by Peter Selinger 2001-2013
</metadata>
<g transform="translate(0.000000,128.000000) scale(0.100000,-0.100000)"
fill="#000000" stroke="none">
<path d="M17 1122 c-15 -17 -17 -65 -17 -484 0 -438 1 -466 18 -481 17 -15 75
-17 624 -17 573 0 606 1 621 18 15 17 17 65 17 484 0 438 -1 466 -18 481 -17
15 -75 17 -624 17 -573 0 -606 -1 -621 -18z m1161 -119 l-3 -38 -525 0 c-289
-1 -531 1 -537 3 -7 2 -13 19 -13 38 l0 34 541 0 540 0 -3 -37z m0 -451 l2
-312 -540 0 -540 0 0 313 0 312 538 0 537 0 3 -313z"/>
<path d="M375 670 c-131 -87 -154 -116 -120 -149 30 -28 246 -171 260 -171 16
0 41 22 48 41 9 26 -16 52 -97 105 -42 27 -76 52 -76 56 0 5 35 31 77 58 90
58 110 86 87 118 -8 12 -25 22 -37 22 -12 0 -76 -36 -142 -80z"/>
<path d="M726 729 c-23 -34 -7 -55 87 -118 l88 -58 -81 -53 c-96 -63 -114 -84
-98 -114 27 -51 35 -49 169 40 142 94 153 105 146 137 -8 28 -239 187 -274
187 -12 0 -29 -10 -37 -21z"/>
</g>
</svg>
